<svg width="21" height="23" viewBox="0 0 21 23" fill="none" xmlns="http://www.w3.org/2000/svg">
<g clip-path="url(#clip0)">
<path d="M13.3391 11.2099L20.7163 3.3576C21.1056 2.9432 21.1056 2.26567 20.7163 1.85127L19.3011 0.343881C18.9118 -0.0705188 18.2752 -0.0705188 17.8859 0.343881L10.5088 8.19723L3.13163 0.344946C2.7423 -0.0694535 2.10577 -0.0694535 1.71645 0.344946L0.301271 1.85127C-0.0880537 2.26567 -0.0880537 2.9432 0.301271 3.3576L7.67842 11.2099L0.301271 19.0622C-0.0880537 19.4766 -0.0880537 20.1541 0.301271 20.5685L1.71745 22.0748C2.10678 22.4892 2.74331 22.4892 3.13263 22.0748L10.5098 14.2225L17.8869 22.0748C18.2762 22.4892 18.9128 22.4892 19.3021 22.0748L20.7173 20.5685C21.1066 20.1541 21.1066 19.4766 20.7173 19.0622L13.3391 11.2099Z" fill="#FB565A" fill-opacity="0.3"/>
</g>
<defs>
<clipPath id="clip0">
<rect width="21" height="22.3525" fill="white" transform="translate(0 0.0236816)"/>
</clipPath>
</defs>
</svg>
